<svg width="102" height="60" viewBox="0 0 102 60" fill="none" xmlns="http://www.w3.org/2000/svg">
<path d="M36.5958 59.3088C35.8368 59.8401 34.9984 60.0252 34.1039 59.9881C32.8342 59.9355 31.8691 59.3144 31.1395 58.3084C30.3876 57.2717 30.1467 56.0745 30.1398 54.8139C30.1338 53.7298 30.3281 52.6908 30.8457 51.7328C31.4857 50.5482 32.4175 49.7237 33.7872 49.5613C35.1549 49.3992 36.3734 49.7256 37.2739 50.8687C37.2953 50.8959 37.3209 50.9198 37.3809 50.9844C37.3809 50.8763 37.3809 50.8063 37.3809 50.7362C37.3809 48.7343 37.3806 46.7323 37.3818 44.7304C37.3819 44.6263 37.3841 44.5201 37.4041 44.4185C37.4538 44.1649 37.6228 44.0126 37.8785 44.0066C38.2663 43.9976 38.6545 43.9983 39.0423 44.0059C39.3055 44.0111 39.4523 44.1308 39.5152 44.3895C39.5444 44.5095 39.5485 44.6379 39.5486 44.7625C39.5514 48.578 39.5486 52.3935 39.5564 56.2091C39.5582 57.1158 39.6165 58.0192 39.8248 58.9079C39.9203 59.3153 39.8351 59.5505 39.5762 59.6942C39.501 59.7359 39.4088 59.76 39.3228 59.7653C39.1503 59.776 38.9765 59.773 38.8035 59.7671C38.4382 59.7545 38.2231 59.6039 38.1105 59.2501C37.9786 58.8357 37.8682 58.4144 37.7407 57.9693C37.4659 58.5096 37.1021 58.963 36.5958 59.3088ZM32.4821 55.797C32.5786 56.3779 32.7962 56.9009 33.1652 57.366C33.6642 57.995 34.5517 58.3009 35.3254 58.1008C36.3251 57.8423 36.9266 57.1421 37.3275 56.2461C37.6279 55.5746 37.65 54.8539 37.5424 54.1312C37.3964 53.1507 36.9891 52.3164 36.1361 51.7716C35.0764 51.0948 33.5182 51.1914 32.8461 52.6746C32.3974 53.6649 32.3075 54.6966 32.4821 55.797Z" fill="white"/>
<path d="M57.8581 52.9186C57.0052 52.3348 56.3304 51.6197 56.0434 50.6129C55.6192 49.1247 56.025 47.6723 57.3759 46.7627C58.5217 45.9911 59.7784 45.8242 61.1089 45.9763C61.998 46.078 62.8252 46.344 63.5422 46.9031C63.6078 46.9543 63.6736 47.0063 63.7327 47.0647C64.0381 47.3662 64.0861 47.5707 63.909 47.9618C63.7974 48.208 63.6645 48.4463 63.5217 48.6758C63.2888 49.05 63.0948 49.0872 62.7083 48.8753C62.3321 48.669 61.9575 48.4576 61.5698 48.2753C60.7768 47.9023 59.9554 47.8512 59.1245 48.1329C58.0276 48.5048 57.9188 49.838 58.4959 50.5462C58.8508 50.9816 59.3287 51.2221 59.8255 51.4453C60.6457 51.8138 61.4768 52.1641 62.2706 52.5845C63.2051 53.0793 63.9135 53.8114 64.2475 54.8516C64.6517 56.1103 64.3589 57.7426 63.285 58.7376C62.5523 59.4164 61.7068 59.854 60.7229 59.958C59.8099 60.0544 58.8962 59.9823 58.0043 59.7391C57.3263 59.5542 56.6776 59.2991 56.104 58.8784C55.7013 58.583 55.6312 58.3666 55.8429 57.914C55.969 57.6445 56.1258 57.3859 56.2968 57.1423C56.5213 56.8224 56.7307 56.8096 57.1284 57.0176C57.5023 57.2131 57.8787 57.4072 58.2666 57.5718C59.0903 57.9213 59.9442 58.0306 60.8264 57.8366C61.8977 57.6011 62.486 56.5497 62.0967 55.5567C61.9348 55.144 61.6344 54.8342 61.2628 54.6263C60.7389 54.333 60.1846 54.095 59.6464 53.8269C59.0524 53.5311 58.462 53.2279 57.8581 52.9186Z" fill="white"/>
<path d="M8.48539 57.6725C8.80613 57.5366 9.10885 57.3989 9.41773 57.277C9.80166 57.1255 10.0317 57.2107 10.2334 57.5658C10.2882 57.6622 10.337 57.763 10.3797 57.8655C10.5743 58.3321 10.4783 58.7095 10.0919 59.0392C9.72439 59.3528 9.29179 59.5428 8.83589 59.6625C7.35295 60.0517 5.85953 60.1428 4.36447 59.7297C3.24092 59.4192 2.32313 58.7803 1.58603 57.8814C0.68484 56.7824 0.252365 55.4909 0.0848635 54.0931C-0.0498602 52.9689 -0.0376952 51.8472 0.219902 50.7452C0.743853 48.5037 1.99185 46.8631 4.24273 46.1875C5.67804 45.7568 7.14181 45.748 8.56112 46.3311C9.2842 46.6282 9.93885 47.0289 10.3209 47.7535C10.6162 48.3137 10.7079 48.9139 10.5536 49.5332C10.4727 49.8582 10.2404 50.0661 9.90717 50.101C9.59188 50.1341 9.27087 50.1399 8.95418 50.123C8.66956 50.1079 8.48036 49.8425 8.44782 49.427C8.40868 48.9272 8.19238 48.543 7.78609 48.2557C7.50719 48.0584 7.19772 47.953 6.8666 47.898C6.12791 47.7755 5.4002 47.8078 4.70498 48.1051C3.8815 48.4573 3.32538 49.0876 2.95395 49.893C2.51581 50.8431 2.38924 51.8541 2.40226 52.8877C2.41247 53.698 2.48523 54.5011 2.73895 55.2783C3.22218 56.7587 4.20662 57.674 5.73758 57.9568C6.67127 58.1292 7.5829 58.0057 8.48539 57.6725Z" fill="white"/>
<path d="M77.4466 49.7067C78.6356 49.4111 79.7993 49.4534 80.933 49.8631C82.1607 50.3067 83.0198 51.1699 83.4559 52.4008C84.0296 54.0201 84.068 55.6663 83.3141 57.2346C82.5016 58.9245 81.1217 59.8535 79.2408 59.9792C78.4811 60.03 77.7371 59.9508 77.0157 59.6886C75.9788 59.3119 75.1594 58.6413 74.6389 57.6827C73.6367 55.8368 73.5946 53.9296 74.5463 52.0475C75.1517 50.8502 76.1409 50.0796 77.4466 49.7067ZM77.4919 57.7886C77.8977 58.0416 78.347 58.1427 78.8164 58.1529C79.9922 58.1784 80.8607 57.7113 81.3169 56.5983C81.7712 55.49 81.7696 54.3366 81.3962 53.2072C81.0719 52.2263 80.4024 51.5701 79.356 51.4135C78.0298 51.215 76.9522 51.7258 76.4182 53.0643C76.1107 53.8351 76.0294 54.6472 76.1414 55.4653C76.2703 56.4069 76.6364 57.2294 77.4919 57.7886Z" fill="white"/>
<path d="M21.7003 55.4262C21.6831 57.0865 22.9 58.0351 24.2501 58.1387C25.2321 58.214 26.1202 57.9775 26.9378 57.4323C27.3873 57.1325 27.6609 57.2184 27.8944 57.7088C27.9301 57.7837 27.9639 57.8595 27.999 57.9347C28.2576 58.4896 28.1706 58.8165 27.6704 59.1689C27.1746 59.5183 26.6104 59.6962 26.0274 59.8184C25.063 60.0205 24.0964 60.0834 23.1268 59.8399C21.2159 59.3601 19.8888 57.8289 19.6649 55.853C19.5387 54.7392 19.5945 53.6396 19.9197 52.5656C20.4017 50.9738 21.4648 50.0081 23.0801 49.6587C24.1147 49.435 25.1438 49.4358 26.15 49.7913C27.4567 50.2532 28.1729 51.3809 28.1248 52.7726C28.078 54.1284 27.231 54.986 26.0137 55.368C24.8383 55.7368 23.6521 55.6797 22.4645 55.433C22.2152 55.3812 21.9686 55.3159 21.7135 55.2551C21.7086 55.3115 21.7045 55.3594 21.7003 55.4262ZM23.8862 53.9843C24.4472 53.96 25.0055 53.9249 25.5063 53.6241C25.973 53.3439 26.0996 52.9144 26.0266 52.405C25.9623 51.9561 25.6964 51.6728 25.2779 51.5208C24.8711 51.3731 24.4503 51.3726 24.0284 51.3949C22.7843 51.4608 21.862 52.3797 21.8072 53.6031C22.4511 53.9222 23.1428 53.9838 23.8862 53.9843Z" fill="white"/>
<path d="M93.6511 52.9622C93.9419 51.763 94.5111 50.7736 95.5934 50.1597C96.555 49.6143 97.6025 49.4544 98.6934 49.5305C99.341 49.5758 99.9615 49.7094 100.532 50.0421C101.379 50.5354 101.841 51.2755 101.942 52.2449C102.028 53.0704 101.9 53.8466 101.317 54.48C100.801 55.0401 100.136 55.3351 99.406 55.4906C98.2519 55.7362 97.1099 55.6319 95.975 55.3574C95.8359 55.3238 95.697 55.2892 95.5566 55.2548C95.4137 56.642 96.3505 57.8576 97.7312 58.0895C98.7983 58.2687 99.7911 58.082 100.7 57.4798C100.781 57.4263 100.864 57.3754 100.949 57.33C101.189 57.2025 101.468 57.252 101.605 57.485C101.751 57.7347 101.876 58.0018 101.97 58.2755C102.05 58.5067 101.963 58.7225 101.796 58.9075C101.397 59.3491 100.869 59.5556 100.322 59.7072C99.3817 59.968 98.4228 60.0824 97.4488 59.9348C95.4542 59.6325 93.973 58.2437 93.5852 56.2967C93.3637 55.1851 93.4213 54.081 93.6511 52.9622ZM96.0846 52.335C95.8146 52.7112 95.6899 53.1391 95.6383 53.597C96.2632 53.909 96.9321 53.9854 97.6125 53.9838C98.195 53.9825 98.7746 53.9412 99.3033 53.6533C99.6989 53.438 99.8941 53.0948 99.8906 52.648C99.8871 52.1865 99.7214 51.8104 99.2852 51.5917C98.9603 51.4288 98.6133 51.3907 98.2594 51.3858C97.4055 51.3737 96.6435 51.5826 96.0846 52.335Z" fill="white"/>
<path d="M51.3885 57.7956C51.6969 58.1352 52.0785 58.1453 52.4516 58.026C52.8096 57.9114 53.1457 57.7271 53.4906 57.5717C53.5784 57.5321 53.66 57.4768 53.7499 57.4444C53.9978 57.3549 54.1492 57.4055 54.2651 57.6412C54.3811 57.877 54.4784 58.1229 54.572 58.3689C54.6807 58.6546 54.5698 58.8903 54.3338 59.0356C53.9709 59.2589 53.5989 59.4771 53.2075 59.6413C52.4262 59.9692 51.6101 60.0208 50.7883 59.8116C49.8169 59.5644 49.319 58.8825 49.1511 57.926C49.1093 57.6874 49.1009 57.4405 49.1004 57.1974C49.0963 55.4116 49.0982 53.6257 49.0982 51.8399C49.0982 51.7645 49.0982 51.6892 49.0982 51.5943C48.8478 51.5943 48.6142 51.5965 48.3807 51.5938C47.9546 51.589 47.8074 51.4431 47.7953 51.0189C47.7731 50.2436 47.7732 50.2433 48.5056 50.0231C48.6312 49.9853 48.7551 49.9309 48.8835 49.9156C49.1386 49.8852 49.2283 49.7514 49.2588 49.4982C49.3253 48.9457 49.4285 48.3976 49.5193 47.8482C49.5363 47.7456 49.5605 47.6436 49.5903 47.5441C49.6799 47.2444 49.7914 47.1533 50.0908 47.144C50.2985 47.1375 50.5068 47.136 50.7143 47.1448C50.9838 47.1562 51.1587 47.3032 51.1839 47.5761C51.2138 47.901 51.2133 48.2291 51.2175 48.556C51.2226 48.9454 51.2187 49.3349 51.2187 49.7466C51.3021 49.7466 51.3694 49.7466 51.4366 49.7466C52.178 49.7466 52.9193 49.7446 53.6606 49.7473C54.1295 49.7491 54.2605 49.8863 54.2606 50.3607C54.2606 50.6119 54.2649 50.8631 54.259 51.1141C54.2525 51.3917 54.1259 51.5342 53.8522 51.5767C53.7571 51.5915 53.6593 51.5934 53.5628 51.5936C52.7883 51.5949 52.0139 51.5943 51.2187 51.5943C51.2187 51.6689 51.2187 51.7294 51.2187 51.7898C51.2187 53.5617 51.213 55.3336 51.2258 57.1054C51.2274 57.3318 51.3255 57.5575 51.3885 57.7956Z" fill="white"/>
<path d="M70.5663 58.0239C70.8842 57.8826 71.1868 57.7492 71.4873 57.6112C71.5812 57.5681 71.6669 57.5066 71.761 57.464C72.0486 57.3339 72.2346 57.4033 72.366 57.6933C72.4518 57.8827 72.5358 58.0739 72.6044 58.27C72.744 58.6696 72.7086 58.8458 72.3554 59.0726C72.0035 59.2985 71.6309 59.5053 71.2431 59.6583C70.4145 59.9852 69.5556 60.0359 68.7012 59.7655C67.8626 59.5001 67.4038 58.8775 67.2414 58.0316C67.1802 57.7127 67.1659 57.3809 67.1645 57.0548C67.1574 55.3178 67.1612 53.5807 67.1612 51.8437C67.1612 51.7682 67.1612 51.6927 67.1612 51.5943C66.9092 51.5943 66.6691 51.5961 66.4289 51.5938C66.0286 51.59 65.8696 51.4235 65.862 51.0195C65.8463 50.1819 65.9059 50.1953 66.5738 50.024C66.7275 49.9846 66.8763 49.92 67.0319 49.8944C67.2282 49.862 67.2895 49.7566 67.3176 49.5658C67.415 48.9052 67.5263 48.2463 67.6486 47.5899C67.709 47.265 67.8705 47.1489 68.1973 47.1431C68.3774 47.1399 68.5577 47.1383 68.7377 47.1435C69.0713 47.1533 69.2588 47.3181 69.2682 47.6564C69.2852 48.2697 69.2786 48.8837 69.2818 49.4974C69.2822 49.5723 69.2818 49.6473 69.2818 49.7465C69.3755 49.7465 69.4493 49.7465 69.5232 49.7465C70.2507 49.7465 70.9782 49.7443 71.7057 49.7473C72.2091 49.7493 72.3331 49.877 72.3333 50.3772C72.3334 50.5795 72.3338 50.7818 72.3333 50.9841C72.3319 51.4432 72.1828 51.593 71.7196 51.5939C70.9852 51.5953 70.2508 51.5943 69.5164 51.5943C69.4476 51.5943 69.3788 51.5943 69.2818 51.5943C69.2818 51.6721 69.2818 51.7387 69.2818 51.8054C69.2818 53.5634 69.2807 55.3213 69.2838 57.0793C69.2841 57.2315 69.2932 57.3888 69.3318 57.5347C69.4309 57.9098 69.7656 58.1157 70.2019 58.0838C70.3187 58.0753 70.4341 58.0485 70.5663 58.0239Z" fill="white"/>
<path d="M18.4245 51.3045C18.3262 51.8119 18.1912 51.9078 17.71 51.8187C17.5472 51.7886 17.3838 51.7553 17.2254 51.7075C16.5531 51.5045 16.0219 51.7169 15.5913 52.2506C15.05 52.9215 14.8117 53.6969 14.8096 54.5511C14.806 56.0501 14.8093 57.5492 14.8073 59.0483C14.8071 59.1588 14.8006 59.2723 14.7747 59.3789C14.714 59.6285 14.5561 59.7616 14.3034 59.7667C13.9227 59.7745 13.5416 59.7747 13.161 59.7654C12.9115 59.7592 12.7205 59.5753 12.6856 59.3256C12.6703 59.2158 12.665 59.1038 12.665 58.9928C12.6638 56.9917 12.6728 54.9905 12.6593 52.9895C12.6547 52.3152 12.5982 51.6411 12.5563 50.9674C12.5417 50.733 12.4741 50.5 12.4761 50.2667C12.4791 49.9269 12.6607 49.763 12.9986 49.7489C13.1645 49.742 13.3309 49.7482 13.4971 49.7476C13.86 49.7463 14.1113 49.9282 14.2168 50.2639C14.3784 50.7785 14.5059 51.3039 14.6265 51.7461C14.7063 51.5163 14.7924 51.1915 14.929 50.8898C15.3736 49.9081 16.2448 49.4158 17.3104 49.5378C17.5959 49.5705 17.8847 49.6234 18.1565 49.7142C18.4946 49.8272 18.5839 50 18.5463 50.3546C18.5133 50.666 18.4665 50.976 18.4245 51.3045Z" fill="white"/>
<path d="M86.5103 57.4618C86.5016 55.5935 86.5016 53.746 86.4777 51.8988C86.4722 51.4707 86.3813 51.0441 86.3374 50.6161C86.3219 50.4653 86.3095 50.3092 86.3308 50.1606C86.3672 49.9065 86.5268 49.7703 86.7827 49.7551C86.969 49.7441 87.1563 49.7495 87.3431 49.749C87.7064 49.7478 87.9552 49.9315 88.0598 50.2685C88.2215 50.7896 88.3521 51.3206 88.4704 51.7537C88.543 51.5389 88.6316 51.2139 88.7616 50.9066C88.995 50.355 89.3767 49.9312 89.939 49.7067C90.6458 49.4245 91.3601 49.4553 92.058 49.7369C92.3573 49.8577 92.4209 50.0075 92.3872 50.3344C92.35 50.6944 92.3081 51.0542 92.2561 51.4123C92.2084 51.7409 92.0214 51.8845 91.6906 51.8405C91.4791 51.8125 91.2676 51.7672 91.0632 51.7057C90.3273 51.4841 89.7834 51.7683 89.3527 52.3511C88.8608 53.0165 88.6497 53.7733 88.65 54.5965C88.6507 56.0608 88.6505 57.5251 88.6497 58.9894C88.6497 59.0938 88.6506 59.1993 88.6369 59.3024C88.5975 59.5987 88.4182 59.7644 88.123 59.7696C87.7699 59.7759 87.4166 59.7752 87.0635 59.7698C86.7345 59.7648 86.5286 59.5756 86.5203 59.2396C86.5057 58.6542 86.5125 58.0684 86.5103 57.4618Z" fill="white"/>
<path d="M42.8146 55.7035C42.8146 53.9605 42.8144 52.2385 42.8152 50.5164C42.8153 50.4121 42.8147 50.3065 42.8293 50.2037C42.8701 49.9148 43.0621 49.7488 43.3526 49.747C43.7058 49.7449 44.0589 49.7439 44.412 49.7474C44.7014 49.7502 44.8577 49.8822 44.9101 50.1695C44.93 50.2781 44.9395 50.3902 44.9396 50.5007C44.9412 52.7247 44.9398 54.9487 44.9428 57.1728C44.943 57.3381 44.949 57.5095 44.9917 57.6672C45.0599 57.919 45.2362 58.0097 45.4873 57.9403C45.6466 57.8963 45.7984 57.8251 45.9556 57.7724C46.1891 57.6941 46.3114 57.7328 46.4174 57.9489C46.5424 58.2037 46.658 58.4647 46.7554 58.7313C46.8469 58.9819 46.7199 59.2415 46.4112 59.442C45.6885 59.9115 44.903 60.0519 44.0698 59.8319C43.4229 59.661 43.0914 59.1737 42.9592 58.5541C42.8728 58.149 42.8382 57.7289 42.8202 57.3138C42.7973 56.7849 42.8146 56.2543 42.8146 55.7035Z" fill="white"/>
<path d="M45.0424 47.4666C44.4545 48.2168 43.3634 48.1599 42.8329 47.5498C42.4191 47.074 42.3482 46.54 42.5913 45.9807C42.8432 45.4012 43.3222 45.1326 43.9467 45.1398C44.5057 45.1462 44.9336 45.3923 45.178 45.9039C45.4335 46.4387 45.4081 46.9642 45.0424 47.4666Z" fill="white"/>
<path d="M46.3415 9.53089C47.2538 9.52235 48.1433 9.51576 49.0328 9.51022C49.2926 9.5086 49.5525 9.50997 49.7704 9.50997C50.0316 8.47152 50.2877 7.45328 50.5494 6.41276C50.1889 6.41276 49.7798 6.41552 49.3708 6.41174C49.1195 6.40941 48.866 6.41573 48.6176 6.38527C48.1321 6.32573 47.7867 5.91666 47.7824 5.42699C47.7781 4.94309 48.1245 4.50457 48.6107 4.46754C49.1738 4.42466 49.7416 4.44094 50.3075 4.43585C50.7299 4.43205 51.1527 4.4435 51.5746 4.42888C51.6736 4.42545 51.8054 4.37023 51.8619 4.29469C52.4984 3.44435 53.2471 2.70791 54.1044 2.07786C54.1235 2.06383 54.1372 2.0427 54.1797 1.99619C54.077 1.98914 54.0027 1.97973 53.9283 1.97961C53.2362 1.97842 52.5439 1.98909 51.852 1.97597C51.1124 1.96195 50.6416 1.40372 50.8081 0.752045C50.9103 0.351935 51.1815 0.11254 51.5861 0.0309777C51.7254 0.00288464 51.872 0.00249991 52.0153 0.00240616C54.4512 0.00081751 56.8871 0.0019774 59.323 0.00099111C60.6982 0.00043437 62.0703 0.0136719 63.4023 0.429223C66.2143 1.3065 68.3526 3.00517 69.7458 5.58118C72.3202 10.3413 70.8201 16.2033 66.2668 19.2179C64.3588 20.4812 62.2543 21.0785 59.9534 20.9728C59.7573 20.9638 59.5595 20.995 59.3625 20.9952C57.0614 20.9969 54.7603 20.9974 52.4592 20.9956C51.7628 20.9951 51.3139 20.6217 51.298 20.04C51.284 19.5289 51.6375 19.112 52.1512 19.0423C52.2841 19.0243 52.4197 19.0203 52.5541 19.0197C53.0832 19.0172 53.6124 19.0187 54.1975 19.0187C54.1109 18.9407 54.0662 18.8936 54.0149 18.8551C53.1052 18.1722 52.3211 17.3692 51.6812 16.4332C51.5717 16.2729 51.4583 16.2188 51.2668 16.2195C49.2713 16.2264 47.2758 16.225 45.2804 16.2229C44.7517 16.2223 44.3729 15.9725 44.2348 15.5475C44.0129 14.8647 44.5053 14.2511 45.2924 14.2485C46.9193 14.243 48.5463 14.2468 50.1732 14.2468C50.2715 14.2468 50.3697 14.2468 50.4467 14.2468C50.2278 13.3322 50.0106 12.4249 49.7863 11.4876C48.9743 11.4876 48.1225 11.4883 47.2706 11.4873C46.9921 11.4869 46.7123 11.4981 46.4354 11.4761C45.8879 11.4324 45.5127 11.0672 45.4772 10.5694C45.4406 10.0546 45.7641 9.65621 46.3415 9.53089ZM66.2391 4.2603C66.2185 4.26293 66.198 4.26557 66.1774 4.2682C66.1884 4.28827 66.1993 4.30835 66.2184 4.3488C66.2274 4.36062 66.2383 4.3703 66.2653 4.41346C68.7153 8.00353 68.7845 11.7735 67.1698 15.6952C67.2348 15.6207 67.3131 15.5451 67.3749 15.4581C68.9228 13.2773 69.3737 10.886 68.7051 8.30997C68.3038 6.76425 67.5122 5.42612 66.2997 4.31822C66.2838 4.30978 66.2678 4.30135 66.2391 4.2603ZM57.5184 2.46874C57.3771 2.52494 57.2354 2.58043 57.0944 2.63744C52.8167 4.36676 50.6889 9.25521 52.3576 13.5196C53.6609 16.8501 56.7642 18.9847 60.3674 19.0124C61.0313 19.0175 61.694 18.965 62.3308 18.7388C64.3116 18.035 65.638 16.6555 66.4545 14.7762C67.2063 13.0458 67.4019 11.2309 67.1646 9.36813C66.9189 7.4396 66.2026 5.71679 64.8541 4.27952C63.5958 2.93842 62.0485 2.19187 60.1981 2.0501C59.281 1.97983 58.4147 2.17359 57.5184 2.46874Z" fill="white"/>
<path d="M43.6875 19.6995C43.8757 19.229 44.2273 19.0232 44.7014 19.021C45.8604 19.0155 47.0195 19.0103 48.1784 19.0229C48.7767 19.0295 49.1642 19.3787 49.2325 19.9221C49.2871 20.3568 48.9812 20.8095 48.5345 20.9392C48.4154 20.9738 48.2875 20.9934 48.1635 20.9938C47.0135 20.9978 45.8634 21.0059 44.7135 20.9927C43.9453 20.9839 43.5068 20.4266 43.6875 19.6995Z" fill="white"/>
<path d="M38.044 10.1562C38.2486 9.70959 38.5956 9.5132 39.0586 9.51137C39.9927 9.50768 40.9269 9.5012 41.8609 9.51359C42.4585 9.52153 42.8472 9.86591 42.9185 10.4082C42.9767 10.8515 42.6584 11.3157 42.202 11.438C42.0821 11.4701 41.9541 11.485 41.8297 11.4855C40.9136 11.4894 39.9974 11.4958 39.0814 11.4851C38.2865 11.4758 37.8555 10.9248 38.044 10.1562Z" fill="white"/>
<path d="M49.3962 1.61093C49.171 1.87446 48.8892 1.97454 48.5716 1.9769C47.8798 1.98205 47.1878 1.98381 46.496 1.97681C46.0448 1.97225 45.6932 1.78432 45.5181 1.35707C45.3673 0.989105 45.4273 0.641022 45.6942 0.337796C45.9101 0.0924944 46.1968 0.00424947 46.5135 0.00267465C47.1964 -0.000721128 47.8794 -0.00116048 48.5622 0.00297217C48.9796 0.00549823 49.3174 0.167267 49.512 0.545116C49.7002 0.910455 49.6605 1.26649 49.3962 1.61093Z" fill="white"/>
<path d="M44.6528 6.41314C44.3315 6.40644 44.0337 6.41915 43.7404 6.38876C43.2224 6.3351 42.8687 5.92175 42.8718 5.40886C42.8749 4.91541 43.2312 4.50326 43.7435 4.46164C44.153 4.42837 44.5692 4.4271 44.979 4.45678C45.5145 4.49556 45.8958 4.92209 45.897 5.4272C45.8983 5.9249 45.509 6.33541 44.9734 6.39744C44.8757 6.40876 44.7766 6.40821 44.6528 6.41314Z" fill="white"/>
<path d="M40.6417 16.2183C40.0512 16.119 39.6959 15.7262 39.707 15.2104C39.7178 14.7138 40.0947 14.3174 40.6494 14.2613C40.9045 14.2356 41.1703 14.2454 41.4238 14.2854C41.9337 14.3659 42.2673 14.8056 42.2366 15.3113C42.2074 15.7905 41.8142 16.1808 41.3106 16.2156C41.0967 16.2303 40.8809 16.2193 40.6417 16.2183Z" fill="white"/>
<path d="M66.2519 4.29297C66.2679 4.3014 66.2838 4.30983 66.3035 4.33175C66.2983 4.35139 66.2894 4.35755 66.2659 4.37079C66.2384 4.37034 66.2274 4.36067 66.225 4.33002C66.2383 4.30512 66.2451 4.29904 66.2519 4.29297Z" fill="white"/>
<path d="M66.2208 4.31981C66.1993 4.30837 66.1883 4.2883 66.1774 4.26823C66.1979 4.2656 66.2185 4.26296 66.2455 4.27664C66.245 4.29903 66.2382 4.3051 66.2208 4.31981Z" fill="white"/>
<path d="M58.2123 12.9331C58.4365 13.8268 59.2488 14.3038 60.2241 14.1039C60.4987 14.0476 60.7794 13.9394 61.0142 13.789C61.7044 13.347 61.7375 12.4079 61.0536 11.9522C60.6363 11.6742 60.1441 11.5051 59.6823 11.2941C59.0094 10.9866 58.2783 10.7675 57.6693 10.366C55.9649 9.24256 56.2148 7.25512 57.4717 6.17888C57.7576 5.93408 58.1141 5.76637 58.4497 5.58418C58.573 5.51725 58.6437 5.46765 58.6371 5.31307C58.6231 4.98428 58.6275 4.65429 58.636 4.32508C58.6478 3.86791 59.0102 3.48693 59.455 3.45095C59.916 3.41367 60.3361 3.7062 60.4263 4.15386C60.4662 4.352 60.4583 4.56031 60.4643 4.76422C60.47 4.95932 60.4655 5.15471 60.4655 5.28941C60.9323 5.51215 61.3956 5.67158 61.7892 5.93367C62.6482 6.50573 63.0861 7.33716 63.1187 8.36589C63.1345 8.86458 62.7883 9.2708 62.3262 9.31887C61.8259 9.37091 61.4011 9.03868 61.3074 8.532C61.2657 8.30685 61.2447 8.06659 61.147 7.86519C60.8974 7.35059 60.174 7.02209 59.5636 7.15567C59.2659 7.2208 58.9459 7.32217 58.7111 7.5028C58.2661 7.84495 58.0032 8.499 58.806 8.95214C59.1844 9.16577 59.5971 9.32575 60.0062 9.479C60.7021 9.7397 61.4053 9.97766 62.0289 10.396C63.4421 11.3442 63.7913 13.241 62.7905 14.5997C62.3444 15.2054 61.7196 15.558 61.0116 15.7824C60.9604 15.7987 60.9081 15.8112 60.8569 15.8273C60.84 15.8325 60.8249 15.8434 60.7933 15.8598C60.7933 16.0999 60.7974 16.3482 60.7925 16.5963C60.7819 17.1419 60.3898 17.5478 59.8767 17.5497C59.3609 17.5516 58.9691 17.1469 58.961 16.6001C58.9575 16.3602 58.9604 16.1202 58.9604 15.8599C58.3886 15.7335 57.8815 15.4771 57.4536 15.0895C56.6554 14.3665 56.2537 13.485 56.4206 12.3963C56.4979 11.8919 56.932 11.5632 57.437 11.6159C57.9296 11.6673 58.2675 12.0975 58.2254 12.6178C58.2175 12.7152 58.2153 12.813 58.2123 12.9331Z" fill="white"/>
</svg>
